<mxfile host="app.diagrams.net" agent="Mozilla/5.0 (Windows NT 10.0; Win64; x64) AppleWebKit/537.36 (KHTML, like Gecko) Chrome/128.0.0.0 Safari/537.36" version="24.7.8" pages="2">
  <diagram name="DIGRAMA DE SECUENCIAS" id="On7p-KFjAMd6os99zSuo">
    <mxGraphModel dx="1707" dy="460" grid="1" gridSize="10" guides="1" tooltips="1" connect="1" arrows="1" fold="1" page="1" pageScale="1" pageWidth="827" pageHeight="1169" math="0" shadow="0">
      <root>
        <mxCell id="0" />
        <mxCell id="1" parent="0" />
        <mxCell id="4r1TjKnwnUNGWqe8pcic-1" value="&lt;span style=&quot;text-wrap: nowrap;&quot;&gt;USUARIOS&lt;/span&gt;" style="shape=umlLifeline;perimeter=lifelinePerimeter;whiteSpace=wrap;html=1;container=1;dropTarget=0;collapsible=0;recursiveResize=0;outlineConnect=0;portConstraint=eastwest;newEdgeStyle={&quot;curved&quot;:0,&quot;rounded&quot;:0};" parent="1" vertex="1">
          <mxGeometry x="110" y="20" width="100" height="300" as="geometry" />
        </mxCell>
        <mxCell id="4r1TjKnwnUNGWqe8pcic-2" value="" style="html=1;points=[[0,0,0,0,5],[0,1,0,0,-5],[1,0,0,0,5],[1,1,0,0,-5]];perimeter=orthogonalPerimeter;outlineConnect=0;targetShapes=umlLifeline;portConstraint=eastwest;newEdgeStyle={&quot;curved&quot;:0,&quot;rounded&quot;:0};" parent="4r1TjKnwnUNGWqe8pcic-1" vertex="1">
          <mxGeometry x="45" y="60" width="10" height="140" as="geometry" />
        </mxCell>
        <mxCell id="4r1TjKnwnUNGWqe8pcic-5" value="&lt;span style=&quot;font-style: italic; text-wrap: nowrap;&quot;&gt;NOTIFICACIONES&lt;/span&gt;" style="shape=umlLifeline;perimeter=lifelinePerimeter;whiteSpace=wrap;html=1;container=1;dropTarget=0;collapsible=0;recursiveResize=0;outlineConnect=0;portConstraint=eastwest;newEdgeStyle={&quot;curved&quot;:0,&quot;rounded&quot;:0};" parent="1" vertex="1">
          <mxGeometry x="270" y="20" width="100" height="300" as="geometry" />
        </mxCell>
        <mxCell id="4r1TjKnwnUNGWqe8pcic-6" value="" style="html=1;points=[[0,0,0,0,5],[0,1,0,0,-5],[1,0,0,0,5],[1,1,0,0,-5]];perimeter=orthogonalPerimeter;outlineConnect=0;targetShapes=umlLifeline;portConstraint=eastwest;newEdgeStyle={&quot;curved&quot;:0,&quot;rounded&quot;:0};" parent="4r1TjKnwnUNGWqe8pcic-5" vertex="1">
          <mxGeometry x="45" y="105" width="10" height="50" as="geometry" />
        </mxCell>
        <mxCell id="xQxV9aa0thiZfFhDXiF4-6" value="" style="html=1;points=[[0,0,0,0,5],[0,1,0,0,-5],[1,0,0,0,5],[1,1,0,0,-5]];perimeter=orthogonalPerimeter;outlineConnect=0;targetShapes=umlLifeline;portConstraint=eastwest;newEdgeStyle={&quot;curved&quot;:0,&quot;rounded&quot;:0};" vertex="1" parent="4r1TjKnwnUNGWqe8pcic-5">
          <mxGeometry x="45" y="105" width="10" height="62.5" as="geometry" />
        </mxCell>
        <mxCell id="xQxV9aa0thiZfFhDXiF4-7" value="" style="html=1;points=[[0,0,0,0,5],[0,1,0,0,-5],[1,0,0,0,5],[1,1,0,0,-5]];perimeter=orthogonalPerimeter;outlineConnect=0;targetShapes=umlLifeline;portConstraint=eastwest;newEdgeStyle={&quot;curved&quot;:0,&quot;rounded&quot;:0};" vertex="1" parent="4r1TjKnwnUNGWqe8pcic-5">
          <mxGeometry x="55" y="127.5" width="10" height="30" as="geometry" />
        </mxCell>
        <mxCell id="xQxV9aa0thiZfFhDXiF4-8" value="" style="edgeStyle=orthogonalEdgeStyle;rounded=0;orthogonalLoop=1;jettySize=auto;html=1;curved=0;entryX=1;entryY=1;entryDx=0;entryDy=-5;entryPerimeter=0;" edge="1" parent="4r1TjKnwnUNGWqe8pcic-5" target="xQxV9aa0thiZfFhDXiF4-7">
          <mxGeometry relative="1" as="geometry">
            <mxPoint x="65" y="137.5" as="sourcePoint" />
            <mxPoint x="145" y="137.5" as="targetPoint" />
            <Array as="points">
              <mxPoint x="125" y="137.5" />
              <mxPoint x="125" y="152.5" />
            </Array>
          </mxGeometry>
        </mxCell>
        <mxCell id="4r1TjKnwnUNGWqe8pcic-9" value="&lt;span style=&quot;font-style: italic; text-wrap: nowrap;&quot;&gt;ADMIN&lt;/span&gt;" style="shape=umlLifeline;perimeter=lifelinePerimeter;whiteSpace=wrap;html=1;container=1;dropTarget=0;collapsible=0;recursiveResize=0;outlineConnect=0;portConstraint=eastwest;newEdgeStyle={&quot;curved&quot;:0,&quot;rounded&quot;:0};" parent="1" vertex="1">
          <mxGeometry x="-30" y="20" width="100" height="300" as="geometry" />
        </mxCell>
        <mxCell id="4r1TjKnwnUNGWqe8pcic-10" value="" style="html=1;points=[[0,0,0,0,5],[0,1,0,0,-5],[1,0,0,0,5],[1,1,0,0,-5]];perimeter=orthogonalPerimeter;outlineConnect=0;targetShapes=umlLifeline;portConstraint=eastwest;newEdgeStyle={&quot;curved&quot;:0,&quot;rounded&quot;:0};" parent="4r1TjKnwnUNGWqe8pcic-9" vertex="1">
          <mxGeometry x="45" y="60" width="10" height="140" as="geometry" />
        </mxCell>
        <mxCell id="4r1TjKnwnUNGWqe8pcic-11" value="Crear usuario" style="html=1;verticalAlign=bottom;startArrow=oval;startFill=1;endArrow=block;startSize=8;curved=0;rounded=0;" parent="1" target="4r1TjKnwnUNGWqe8pcic-2" edge="1">
          <mxGeometry x="0.037" width="60" relative="1" as="geometry">
            <mxPoint x="20" y="120" as="sourcePoint" />
            <mxPoint x="140" y="120" as="targetPoint" />
            <mxPoint as="offset" />
          </mxGeometry>
        </mxCell>
        <mxCell id="xQxV9aa0thiZfFhDXiF4-1" value="&lt;span style=&quot;font-size: 12px; text-align: left; background-color: rgb(251, 251, 251);&quot;&gt;Usuario&lt;/span&gt;" style="html=1;verticalAlign=bottom;endArrow=block;curved=0;rounded=0;dashed=1;" edge="1" parent="1">
          <mxGeometry x="0.0049" relative="1" as="geometry">
            <mxPoint x="160" y="180" as="sourcePoint" />
            <mxPoint x="20" y="180" as="targetPoint" />
            <mxPoint as="offset" />
          </mxGeometry>
        </mxCell>
        <mxCell id="xQxV9aa0thiZfFhDXiF4-5" value="notificarCreacion" style="html=1;verticalAlign=bottom;startArrow=oval;startFill=1;endArrow=block;startSize=8;curved=0;rounded=0;" edge="1" parent="1" target="4r1TjKnwnUNGWqe8pcic-5">
          <mxGeometry x="0.037" width="60" relative="1" as="geometry">
            <mxPoint x="160" y="140" as="sourcePoint" />
            <mxPoint x="295" y="140" as="targetPoint" />
            <mxPoint as="offset" />
          </mxGeometry>
        </mxCell>
        <mxCell id="xQxV9aa0thiZfFhDXiF4-9" value="enviarNotificacion" style="text;html=1;align=center;verticalAlign=middle;resizable=0;points=[];autosize=1;strokeColor=none;fillColor=none;" vertex="1" parent="1">
          <mxGeometry x="390" y="150" width="120" height="30" as="geometry" />
        </mxCell>
      </root>
    </mxGraphModel>
  </diagram>
  <diagram id="2HEXqUqmtZ--2Ej-Ksmd" name="DIAGRAMAS DE ACTIVIDADES">
    <mxGraphModel dx="607" dy="772" grid="1" gridSize="10" guides="1" tooltips="1" connect="1" arrows="1" fold="1" page="1" pageScale="1" pageWidth="827" pageHeight="1169" math="0" shadow="0">
      <root>
        <mxCell id="0" />
        <mxCell id="1" parent="0" />
        <mxCell id="oKcWqDr5QkF45wVMTvJz-1" value="Administrador de sistema" style="swimlane;horizontal=0;whiteSpace=wrap;html=1;" parent="1" vertex="1">
          <mxGeometry x="930" y="160" width="1330" height="160" as="geometry" />
        </mxCell>
        <mxCell id="oKcWqDr5QkF45wVMTvJz-2" value="" style="verticalLabelPosition=bottom;verticalAlign=top;html=1;shape=mxgraph.flowchart.on-page_reference;fillColor=#000000" parent="oKcWqDr5QkF45wVMTvJz-1" vertex="1">
          <mxGeometry x="50" y="50" width="40" height="40" as="geometry" />
        </mxCell>
        <mxCell id="oKcWqDr5QkF45wVMTvJz-3" value="Iniciar sesiÃ³n en el sistema SSAP" style="rounded=1;whiteSpace=wrap;html=1;" parent="oKcWqDr5QkF45wVMTvJz-1" vertex="1">
          <mxGeometry x="140" y="40" width="120" height="60" as="geometry" />
        </mxCell>
        <mxCell id="oKcWqDr5QkF45wVMTvJz-4" value="" style="edgeStyle=orthogonalEdgeStyle;rounded=0;orthogonalLoop=1;jettySize=auto;html=1;" parent="oKcWqDr5QkF45wVMTvJz-1" source="oKcWqDr5QkF45wVMTvJz-2" target="oKcWqDr5QkF45wVMTvJz-3" edge="1">
          <mxGeometry relative="1" as="geometry" />
        </mxCell>
        <mxCell id="oKcWqDr5QkF45wVMTvJz-7" value="Ingresar datos solicitados" style="rounded=1;whiteSpace=wrap;html=1;" parent="oKcWqDr5QkF45wVMTvJz-1" vertex="1">
          <mxGeometry x="490" y="40" width="120" height="60" as="geometry" />
        </mxCell>
        <mxCell id="oKcWqDr5QkF45wVMTvJz-12" value="" style="edgeStyle=orthogonalEdgeStyle;rounded=0;orthogonalLoop=1;jettySize=auto;html=1;" parent="oKcWqDr5QkF45wVMTvJz-1" source="oKcWqDr5QkF45wVMTvJz-7" target="oKcWqDr5QkF45wVMTvJz-8" edge="1">
          <mxGeometry relative="1" as="geometry">
            <mxPoint x="680" y="70" as="targetPoint" />
          </mxGeometry>
        </mxCell>
        <mxCell id="oKcWqDr5QkF45wVMTvJz-15" value="" style="edgeStyle=orthogonalEdgeStyle;rounded=0;orthogonalLoop=1;jettySize=auto;html=1;" parent="oKcWqDr5QkF45wVMTvJz-1" source="oKcWqDr5QkF45wVMTvJz-8" target="oKcWqDr5QkF45wVMTvJz-14" edge="1">
          <mxGeometry relative="1" as="geometry" />
        </mxCell>
        <mxCell id="oKcWqDr5QkF45wVMTvJz-18" value="No" style="edgeLabel;html=1;align=center;verticalAlign=middle;resizable=0;points=[];" parent="oKcWqDr5QkF45wVMTvJz-15" vertex="1" connectable="0">
          <mxGeometry x="-0.214" y="2" relative="1" as="geometry">
            <mxPoint as="offset" />
          </mxGeometry>
        </mxCell>
        <mxCell id="oKcWqDr5QkF45wVMTvJz-17" value="" style="edgeStyle=orthogonalEdgeStyle;rounded=0;orthogonalLoop=1;jettySize=auto;html=1;" parent="oKcWqDr5QkF45wVMTvJz-1" source="oKcWqDr5QkF45wVMTvJz-8" target="oKcWqDr5QkF45wVMTvJz-16" edge="1">
          <mxGeometry relative="1" as="geometry" />
        </mxCell>
        <mxCell id="oKcWqDr5QkF45wVMTvJz-19" value="Si" style="edgeLabel;html=1;align=center;verticalAlign=middle;resizable=0;points=[];" parent="oKcWqDr5QkF45wVMTvJz-17" vertex="1" connectable="0">
          <mxGeometry x="-0.1571" y="-2" relative="1" as="geometry">
            <mxPoint as="offset" />
          </mxGeometry>
        </mxCell>
        <mxCell id="oKcWqDr5QkF45wVMTvJz-8" value="Â¿ingreso contraseÃ±a inicial?" style="rhombus;whiteSpace=wrap;html=1;" parent="oKcWqDr5QkF45wVMTvJz-1" vertex="1">
          <mxGeometry x="670" y="25" width="100" height="90" as="geometry" />
        </mxCell>
        <mxCell id="oKcWqDr5QkF45wVMTvJz-14" value="Genera contraseÃ±a temporal" style="whiteSpace=wrap;html=1;" parent="oKcWqDr5QkF45wVMTvJz-1" vertex="1">
          <mxGeometry x="660" y="210" width="120" height="60" as="geometry" />
        </mxCell>
        <mxCell id="oKcWqDr5QkF45wVMTvJz-22" style="edgeStyle=orthogonalEdgeStyle;rounded=0;orthogonalLoop=1;jettySize=auto;html=1;entryX=0;entryY=0.5;entryDx=0;entryDy=0;" parent="oKcWqDr5QkF45wVMTvJz-1" source="oKcWqDr5QkF45wVMTvJz-16" target="oKcWqDr5QkF45wVMTvJz-20" edge="1">
          <mxGeometry relative="1" as="geometry" />
        </mxCell>
        <mxCell id="oKcWqDr5QkF45wVMTvJz-16" value="Asigna contraseÃ±a inicial" style="whiteSpace=wrap;html=1;" parent="oKcWqDr5QkF45wVMTvJz-1" vertex="1">
          <mxGeometry x="840" y="40" width="120" height="60" as="geometry" />
        </mxCell>
        <mxCell id="oKcWqDr5QkF45wVMTvJz-20" value="Revisar y confirmar usuario" style="whiteSpace=wrap;html=1;" parent="oKcWqDr5QkF45wVMTvJz-1" vertex="1">
          <mxGeometry x="1000" y="40" width="120" height="60" as="geometry" />
        </mxCell>
        <mxCell id="oKcWqDr5QkF45wVMTvJz-21" value="" style="edgeStyle=orthogonalEdgeStyle;rounded=0;orthogonalLoop=1;jettySize=auto;html=1;" parent="oKcWqDr5QkF45wVMTvJz-1" source="oKcWqDr5QkF45wVMTvJz-14" target="oKcWqDr5QkF45wVMTvJz-20" edge="1">
          <mxGeometry relative="1" as="geometry" />
        </mxCell>
        <mxCell id="oKcWqDr5QkF45wVMTvJz-6" value="Miembro del equipo" style="swimlane;horizontal=0;whiteSpace=wrap;html=1;startSize=23;" parent="1" vertex="1">
          <mxGeometry x="930" y="320" width="1330" height="160" as="geometry" />
        </mxCell>
        <mxCell id="oKcWqDr5QkF45wVMTvJz-9" value="" style="edgeStyle=orthogonalEdgeStyle;rounded=0;orthogonalLoop=1;jettySize=auto;html=1;entryX=0;entryY=0.5;entryDx=0;entryDy=0;" parent="1" source="oKcWqDr5QkF45wVMTvJz-10" target="oKcWqDr5QkF45wVMTvJz-7" edge="1">
          <mxGeometry relative="1" as="geometry">
            <mxPoint x="1440.9999999999998" y="230" as="targetPoint" />
          </mxGeometry>
        </mxCell>
        <mxCell id="oKcWqDr5QkF45wVMTvJz-10" value="Seleccionar la opcion &quot;Crear nuevo usuario&quot;" style="rounded=1;whiteSpace=wrap;html=1;" parent="1" vertex="1">
          <mxGeometry x="1241" y="200" width="120" height="60" as="geometry" />
        </mxCell>
        <mxCell id="oKcWqDr5QkF45wVMTvJz-11" value="" style="edgeStyle=orthogonalEdgeStyle;rounded=0;orthogonalLoop=1;jettySize=auto;html=1;" parent="1" source="oKcWqDr5QkF45wVMTvJz-3" target="oKcWqDr5QkF45wVMTvJz-10" edge="1">
          <mxGeometry relative="1" as="geometry" />
        </mxCell>
        <mxCell id="oKcWqDr5QkF45wVMTvJz-24" value="" style="edgeStyle=orthogonalEdgeStyle;rounded=0;orthogonalLoop=1;jettySize=auto;html=1;" parent="1" source="oKcWqDr5QkF45wVMTvJz-20" target="oKcWqDr5QkF45wVMTvJz-23" edge="1">
          <mxGeometry relative="1" as="geometry">
            <Array as="points">
              <mxPoint x="2110" y="240" />
            </Array>
          </mxGeometry>
        </mxCell>
        <mxCell id="khvwO8cPdbeW_409O5pb-1" value="Notificacion" style="swimlane;horizontal=0;whiteSpace=wrap;html=1;startSize=23;" vertex="1" parent="1">
          <mxGeometry x="930" y="480" width="1330" height="160" as="geometry" />
        </mxCell>
        <mxCell id="oKcWqDr5QkF45wVMTvJz-23" value="Notificar al usuario&amp;nbsp;" style="whiteSpace=wrap;html=1;" parent="khvwO8cPdbeW_409O5pb-1" vertex="1">
          <mxGeometry x="1120" y="50" width="120" height="60" as="geometry" />
        </mxCell>
        <mxCell id="oKcWqDr5QkF45wVMTvJz-25" value="" style="ellipse;html=1;shape=endState;fillColor=#000000;strokeColor=#ff0000;" parent="khvwO8cPdbeW_409O5pb-1" vertex="1">
          <mxGeometry x="1280" y="60" width="40" height="40" as="geometry" />
        </mxCell>
        <mxCell id="oKcWqDr5QkF45wVMTvJz-26" style="edgeStyle=orthogonalEdgeStyle;rounded=0;orthogonalLoop=1;jettySize=auto;html=1;" parent="khvwO8cPdbeW_409O5pb-1" source="oKcWqDr5QkF45wVMTvJz-23" target="oKcWqDr5QkF45wVMTvJz-25" edge="1">
          <mxGeometry relative="1" as="geometry" />
        </mxCell>
      </root>
    </mxGraphModel>
  </diagram>
</mxfile>
